<svg xmlns="http://www.w3.org/2000/svg" width="68.97" height="75.031" viewBox="0 0 68.97 75.031">
  <defs>
    <style>
      .cls-1 {
        fill: #e4d8c8;
        fill-rule: evenodd;
      }
    </style>
  </defs>
  <path class="cls-1" d="M1197.04,309.668c-9.51,6.767-18.52,20.923-13.95,32.223,7.4,18.284,43.97,13.442,44.89,9.128,0.52-2.406-10.26-4.472-11.82-11.873-1.62-7.652,7.3-12.9,6.57-21.947-0.4-4.962-3.33-10.193-7.77-12.231C1210.87,303.091,1205.22,303.851,1197.04,309.668Zm5.97-13.153c0.2,3.1-10.31,4.891-16.82,11.567-6.42,6.592-8.12,17.1-11.06,16.9-3.13-.2-6.58-10.329-3.99-19.129,1.33-4.51,4.89-10.672,11.95-13.345C1192.04,289.125,1202.78,293.137,1203.01,296.515Zm-26.56-9.342c0.15,1.5-4,2.93-6.19,5.339-2.45,2.685-3.21,6.747-4.43,6.672-1.87-.113-4.41-7.636-1.33-12.011a6.845,6.845,0,0,1,2.66-2.224C1171.02,283.153,1176.27,285.268,1176.45,287.173Zm-13.72-6.228c0.05,0.357-.84.708-1.32,1.335-0.33.426-.56,1.3-0.89,1.334-0.7.082-2.02-2.152-1.33-3.114C1159.93,279.484,1162.64,280.251,1162.73,280.945Z" transform="translate(-1159 -280)"/>
</svg>
